<svg id="vector" xmlns="http://www.w3.org/2000/svg" width="30" height="30" viewBox="0 0 30 30"><defs><clipPath id="clip_path_0"><path d="M0,0h30v30h-30z"/></clipPath></defs><g id="g_0"><g clip-path="url(#clip_path_0)"><path fill="#1B4965" d="M16.25,13.75C18.689,13.75 20.318,12.91 21.381,11.492C22.325,10.233 22.729,8.615 23.059,7.291L23.088,7.178C23.455,5.709 23.758,4.572 24.369,3.758C24.888,3.066 25.72,2.5 27.5,2.5C28.19,2.5 28.75,1.94 28.75,1.25C28.75,0.56 28.19,0 27.5,0C25.061,0 23.432,0.84 22.369,2.258C21.425,3.517 21.021,5.135 20.691,6.459L20.662,6.572C20.295,8.041 19.992,9.178 19.381,9.992C18.862,10.684 18.03,11.25 16.25,11.25C15.56,11.25 15,11.81 15,12.5C15,13.19 15.56,13.75 16.25,13.75ZM12.002,0.252C11.45,-0.163 10.666,-0.051 10.252,0.501C9.838,1.053 9.949,1.837 10.501,2.251C11.026,2.645 11.469,3.139 11.803,3.704C12.138,4.269 12.357,4.895 12.45,5.545C12.543,6.195 12.506,6.857 12.343,7.493C12.18,8.129 11.893,8.726 11.499,9.251C11.085,9.804 11.196,10.587 11.748,11.002C12.3,11.416 13.084,11.304 13.498,10.752C14.09,9.964 14.52,9.068 14.765,8.114C15.009,7.16 15.064,6.167 14.925,5.192C14.786,4.217 14.456,3.279 13.955,2.431C13.453,1.583 12.79,0.843 12.002,0.252ZM8.75,6.25C8.75,6.94 8.19,7.5 7.5,7.5C6.81,7.5 6.25,6.94 6.25,6.25C6.25,5.56 6.81,5 7.5,5C8.19,5 8.75,5.56 8.75,6.25ZM27.5,11.25C28.19,11.25 28.75,10.69 28.75,10C28.75,9.31 28.19,8.75 27.5,8.75C26.81,8.75 26.25,9.31 26.25,10C26.25,10.69 26.81,11.25 27.5,11.25ZM25,22.5C25,23.19 24.44,23.75 23.75,23.75C23.06,23.75 22.5,23.19 22.5,22.5C22.5,21.81 23.06,21.25 23.75,21.25C24.44,21.25 25,21.81 25,22.5ZM24.458,17.55C23.808,17.457 23.146,17.493 22.51,17.656C21.874,17.819 21.276,18.106 20.751,18.5C20.198,18.914 19.415,18.802 19.001,18.249C18.587,17.697 18.699,16.913 19.251,16.499C20.039,15.908 20.936,15.479 21.89,15.234C22.844,14.99 23.837,14.936 24.812,15.075C25.787,15.215 26.725,15.545 27.572,16.047C28.42,16.549 29.16,17.213 29.751,18.001C30.165,18.553 30.053,19.337 29.5,19.751C28.948,20.165 28.165,20.053 27.75,19.501C27.357,18.975 26.863,18.533 26.298,18.198C25.733,17.863 25.108,17.643 24.458,17.55ZM8.384,11.616C8.085,11.317 7.654,11.189 7.241,11.277C6.827,11.365 6.485,11.656 6.333,12.051L4.593,16.576L13.425,25.407L17.949,23.667C18.344,23.515 18.635,23.173 18.723,22.76C18.811,22.346 18.683,21.915 18.384,21.616L8.384,11.616ZM10.871,26.389L3.611,19.129L0.083,28.301C-0.094,28.762 0.017,29.285 0.366,29.634C0.715,29.983 1.238,30.094 1.699,29.917L10.871,26.389Z" fill-rule="evenodd"/></g></g></svg>