<svg id="vector" xmlns="http://www.w3.org/2000/svg" width="30" height="30" viewBox="0 0 30 30"><defs><clipPath id="clip_path_0"><path d="M0,0h30v30h-30z"/></clipPath></defs><g id="g_0"><path fill="#1B4965" d="M0.516,18.328L1.031,0L13.594,1.172L12.75,18.844L0.516,18.328Z" clip-path="url(#clip_path_0)"/><path fill="#FCBE10" d="M13.359,8.438L13.453,6.094L8.953,5.719L9.188,0.516L6.234,0.234L6.047,4.219L6,5.484L0.656,5.063L0.609,7.734L5.953,8.063L5.625,18.797L8.531,18.938L8.859,8.203L13.359,8.438Z"/><path fill="#FFCE31" d="M4.969,6.234C4.969,6.234 4.781,9.188 2.578,10.875L4.5,11.063L4.266,13.406C4.266,13.406 6.516,10.781 6.891,6.422L4.969,6.234Z"/><path fill="#FFCE31" d="M9.89,6.703C9.89,6.703 9.515,9.656 11.39,11.719L9.468,11.531L9.234,13.875C9.234,13.875 7.5,10.875 7.922,6.516L9.89,6.703Z"/><path fill="#FFE62E" d="M7.218,6.609C7.172,7.359 6.234,8.016 5.203,8.063L4.359,8.109C3.328,8.156 2.672,7.781 2.906,7.219C3.14,6.656 3.234,5.813 3.093,5.25C2.953,4.688 3.656,4.406 4.687,4.641L5.484,4.828C6.515,5.063 7.265,5.859 7.218,6.609Z"/><path fill="#FFCE31" d="M3.187,7.312C3.093,7.359 3.187,7.453 3.187,7.5C3.281,7.594 3.515,7.734 3.937,7.781H4.359L5.203,7.734C5.765,7.687 6.328,7.453 6.656,7.125C6.656,7.172 4.218,6.469 3.187,7.312Z"/><path fill="#FFE62E" d="M7.594,6.609C7.547,7.359 8.297,8.156 9.281,8.391L10.078,8.578C11.063,8.812 11.813,8.531 11.672,7.969C11.531,7.406 11.625,6.516 11.859,6C12.094,5.484 11.438,5.062 10.406,5.109L9.563,5.156C8.578,5.25 7.688,5.859 7.594,6.609Z"/><path fill="#FFCE31" d="M11.438,8.062C11.531,8.156 11.391,8.203 11.391,8.25C11.297,8.344 11.016,8.437 10.594,8.391C10.453,8.391 10.313,8.344 10.172,8.344L9.375,8.156C8.813,8.016 8.344,7.687 8.063,7.312C8.063,7.266 10.594,7.078 11.438,8.062Z"/><path fill="#FFCE31" d="M7.313,6.375C7.313,6.375 7.031,6.562 6.516,6C5.906,5.344 4.781,6.047 6.094,6.516C6.797,6.75 7.313,6.375 7.313,6.375Z"/><path fill="#FFCE31" d="M7.547,6.422C7.547,6.422 7.781,6.656 8.438,6.188C9.188,5.672 10.125,6.516 8.766,6.75C8.016,6.844 7.547,6.422 7.547,6.422Z"/><path fill="#FFCE31" d="M7.313,7.641C6.75,7.594 6.61,7.969 6.704,6.562C6.844,5.156 6.938,5.578 7.5,5.625C8.063,5.672 8.204,5.297 8.11,6.703C8.016,8.109 7.875,7.687 7.313,7.641Z"/><path fill="#FFE62E" d="M7.313,7.641C6.891,7.594 6.703,8.016 6.844,6.563C6.985,5.109 7.032,5.531 7.5,5.578C7.922,5.625 8.11,5.203 7.969,6.656C7.828,8.109 7.782,7.688 7.313,7.641Z"/><path fill="#1B4965" d="M18.188,5.766L20.438,0L28.922,2.625L27.609,7.313L18.188,5.766Z"/><path fill="#FFE62E" d="M21.328,6.281L24.281,6.75L25.922,1.641L23.109,0.75L21.328,6.281Z"/><path fill="#1B4965" d="M15.188,5.25V14.391L30,14.25V5.25H15.188Z"/><path fill="#1B4965" d="M15.188,5.25L12.703,6.234V14.391H15.188V5.25Z"/><path fill="#3E4347" d="M7.5,30L3.75,28.125V12.188H7.5V30Z"/><path fill="#62727A" d="M3.75,28.125L0,30V12.188H3.75V28.125Z"/><path fill="#62727A" d="M7.5,12.188H30V30H7.5V12.188Z"/><path fill="#3E4347" d="M15,17.813C15.777,17.813 16.406,17.183 16.406,16.406C16.406,15.63 15.777,15 15,15C14.223,15 13.594,15.63 13.594,16.406C13.594,17.183 14.223,17.813 15,17.813Z"/><path fill="#3E4347" d="M24.375,17.813C25.152,17.813 25.781,17.183 25.781,16.406C25.781,15.63 25.152,15 24.375,15C23.598,15 22.969,15.63 22.969,16.406C22.969,17.183 23.598,17.813 24.375,17.813Z"/><path fill="#D0D0D0" d="M14.531,16.406V21.328C14.531,24.469 16.359,27.047 19.688,27.188C21.422,27.234 22.969,26.25 24,24.891C24.75,23.859 24.844,22.594 24.844,21.328V16.406C24.844,15.797 23.906,15.797 23.906,16.406V22.359C23.813,24.609 21.797,26.203 19.688,26.25C17.625,26.297 15.984,24.75 15.563,22.828C15.375,22.031 15.469,21.094 15.469,20.297V16.406C15.469,15.797 14.531,15.797 14.531,16.406Z"/></g></svg>