<svg id="vector" xmlns="http://www.w3.org/2000/svg" width="30" height="30" viewBox="0 0 30 30"><defs><clipPath id="clip_path_0"><path d="M0,0h30v30h-30z"/></clipPath></defs><g id="g_0"><path fill="#1B4965" d="M19.136,16.492L23.036,11.85C23.957,11.847 25.718,11.599 27.309,10.008C30.538,6.779 27.908,0.675 27.794,0.417C27.667,0.127 27.361,-0.04 27.048,0.008C26.736,0.056 26.494,0.309 26.46,0.624C26.457,0.648 26.18,3.024 24.708,3.178C24.528,3.196 24.359,3.205 24.189,3.205C23.764,3.205 23.433,3.147 23.113,3.091C22.829,3.042 22.562,2.995 22.269,2.995C21.622,2.995 21.032,3.239 20.357,3.787C18.971,4.912 18.792,6.858 18.787,7.749L14.225,11.582L9.226,6.582C9.223,6.58 9.22,6.578 9.218,6.576C9.191,6.55 9.161,6.525 9.13,6.504C9.124,6.5 9.119,6.495 9.113,6.492C9.086,6.474 9.058,6.458 9.029,6.444L4.074,4.111L2.085,3.175C1.818,3.049 1.502,3.105 1.293,3.313C1.27,3.337 1.249,3.362 1.229,3.388C1.227,3.391 1.225,3.393 1.223,3.396C1.21,3.413 1.2,3.432 1.19,3.45C1.182,3.462 1.173,3.474 1.166,3.488C1.16,3.5 1.155,3.514 1.149,3.527C1.141,3.546 1.132,3.566 1.125,3.585C1.121,3.597 1.119,3.608 1.116,3.62C1.11,3.642 1.103,3.665 1.099,3.688C1.097,3.7 1.097,3.712 1.096,3.724C1.093,3.747 1.089,3.77 1.089,3.793C1.089,3.804 1.09,3.815 1.091,3.826C1.091,3.85 1.092,3.875 1.095,3.899C1.096,3.909 1.099,3.919 1.101,3.93C1.105,3.954 1.109,3.979 1.117,4.004C1.12,4.015 1.126,4.026 1.13,4.038C1.138,4.06 1.145,4.083 1.155,4.105L4.424,11.049C4.438,11.078 4.453,11.104 4.47,11.131C4.473,11.136 4.477,11.141 4.481,11.146C4.504,11.179 4.529,11.21 4.556,11.238C4.559,11.241 4.56,11.243 4.562,11.246L10.071,16.755C8.077,18.856 6.02,21.208 4.43,23.222C3.359,24.577 2.552,25.708 2.03,26.581C1.453,27.548 1.001,28.525 1.597,29.121C1.724,29.249 1.952,29.4 2.316,29.4C4.115,29.4 10.062,24.34 13.962,20.645L23.112,29.795C23.248,29.932 23.427,30 23.606,30C23.785,30 23.964,29.932 24.1,29.795L25.444,28.452L6.894,9.902L7.882,8.914L26.432,27.463L27.776,26.12C28.049,25.847 28.049,25.405 27.776,25.132L19.136,16.492ZM5.265,9.554L4.042,6.955L4.935,6.062L7.534,7.285L5.265,9.554ZM15.217,12.574L19.409,9.052L21.666,11.308L18.144,15.5L15.217,12.574Z" clip-path="url(#clip_path_0)"/></g></svg>